<svg id="Capa_1" enable-background="new 0 0 512 512" height="512" viewBox="0 0 512 512" width="512" xmlns="http://www.w3.org/2000/svg"><g><path d="m467 0h-422c-24.813 0-45 20.187-45 45v321.784c0 24.813 20.187 45 45 45h149.625v100.216h122.75v-100.216h149.625c24.813 0 45-20.187 45-45v-321.784c0-24.813-20.187-45-45-45zm-179.625 482h-62.75v-70.216h62.75zm194.625-115.216c0 8.271-6.729 15-15 15h-422c-8.271 0-15-6.729-15-15v-321.784c0-8.271 6.729-15 15-15h422c8.271 0 15 6.729 15 15z"/><path d="m167.576 186.868c0-24.416-19.864-44.28-44.279-44.28-24.416 0-44.28 19.864-44.28 44.28s19.864 44.279 44.28 44.279c24.415 0 44.279-19.863 44.279-44.279zm-44.28 14.279c-7.874 0-14.28-6.405-14.28-14.279s6.406-14.28 14.28-14.28 14.279 6.406 14.279 14.28-6.405 14.279-14.279 14.279z"/><path d="m384.377 142.588c-24.416 0-44.28 19.864-44.28 44.28s19.864 44.279 44.28 44.279 44.28-19.863 44.28-44.279-19.864-44.28-44.28-44.28zm0 58.559c-7.874 0-14.28-6.405-14.28-14.279s6.406-14.28 14.28-14.28 14.28 6.406 14.28 14.28-6.406 14.279-14.28 14.279z"/><path d="m202.229 157.213c24.416 0 44.28-19.863 44.28-44.279s-19.864-44.28-44.28-44.28-44.28 19.864-44.28 44.28 19.864 44.279 44.28 44.279zm0-58.56c7.874 0 14.28 6.406 14.28 14.28s-6.406 14.279-14.28 14.279-14.28-6.405-14.28-14.279 6.406-14.28 14.28-14.28z"/><path d="m309.771 157.213c24.416 0 44.28-19.863 44.28-44.279s-19.864-44.28-44.28-44.28-44.28 19.864-44.28 44.28 19.863 44.279 44.28 44.279zm0-58.56c7.874 0 14.28 6.406 14.28 14.28s-6.406 14.279-14.28 14.279-14.28-6.405-14.28-14.279 6.405-14.28 14.28-14.28z"/><path d="m324.303 228.599c-6.458-31.792-34.748-55.885-68.303-55.885s-61.845 24.093-68.303 55.885c-11.242 2.761-21.526 8.615-29.782 17.092-11.423 11.731-17.715 27.211-17.715 43.589 0 34.465 28.04 62.504 62.504 62.504h2.521l2.382-.824c32.562-11.263 64.22-11.263 96.783 0l2.382.824h2.521c34.465 0 62.504-28.039 62.504-62.504 0-16.378-6.292-31.857-17.715-43.589-8.253-8.477-18.538-14.332-29.779-17.092zm-12.77 93.108c-36.863-12.156-74.203-12.156-111.066 0-16.882-1.154-30.266-15.258-30.266-32.428 0-17.702 13.857-31.968 31.548-32.476l14.415-.414.154-14.42c.231-21.646 18.033-39.256 39.683-39.256s39.452 17.61 39.683 39.256l.154 14.42 14.415.414c17.69.508 31.548 14.773 31.548 32.476-.002 17.17-13.385 31.274-30.268 32.428z"/></g></svg>