<svg xmlns="http://www.w3.org/2000/svg" width="299" height="299.011" viewBox="0 0 299 299.011"><defs><style>.a{fill:#c30b24;}.b{fill:#ff0;}.c{fill:#fff;}</style></defs><title>good-sam</title><path class="a" d="M149.479,0C67.044.012-.012,67.088,0,149.524s67.089,149.5,149.524,149.487S299.012,231.91,299,149.479,231.91-.013,149.479,0Z"/><path class="b" d="M45.982,104.1a31.676,31.676,0,0,1,5.29-8.267c-10.246.716-16.858-.211-18.767-1.557,1.841-3.331,15.429-11.105,39.077-16.5s39.257-4.3,42.394-2.1C112.62,78.093,105.1,82.828,92.1,87.3a30.768,30.768,0,0,1,8.868,5.243c11.727-4.617,22.854-11.1,21.14-18.713l-.008-.027c-3.406-14.559-47.312-4.969-52.3-3.828C52.814,73.86,31.036,81.472,25.6,90.152A7.422,7.422,0,0,0,28.079,101C31.882,103.392,38.415,104.236,45.982,104.1Z"/><path class="c" d="M111.162,118.121q0,13.445-6.966,23.29Q95.129,154.2,77.454,154.2q-14.659,0-23.632-9.255t-8.976-24.015q0-15.21,9.021-24.426T78.094,87.3q19.874,0,29.129,16.035L92.83,110.211a22.952,22.952,0,0,0-6.142-7.016,15.043,15.043,0,0,0-8.8-2.489,13.656,13.656,0,0,0-11.919,6.33,23.528,23.528,0,0,0-3.76,13.576q0,8.261,3.583,13.763A13.4,13.4,0,0,0,77.8,140.8q11.1,0,15.224-10.854H78.367v-13.66h32.8Z"/><path class="c" d="M159.29,131.031a21.646,21.646,0,0,1-7.412,16.944q-7.131,6.231-17.657,6.228a25.406,25.406,0,0,1-17.476-6.408,22.669,22.669,0,0,1-.1-33.618,25.541,25.541,0,0,1,17.572-6.322q10.794,0,17.75,6.14Q159.3,120.4,159.29,131.031Zm-15.576.027a8.675,8.675,0,0,0-2.788-6.454,9.356,9.356,0,0,0-13.111-.047,8.686,8.686,0,0,0-2.744,6.5,8.41,8.41,0,0,0,2.786,6.366,9.5,9.5,0,0,0,13.069,0A8.4,8.4,0,0,0,143.714,131.058Z"/><path class="c" d="M208.7,131.031a21.663,21.663,0,0,1-7.413,16.944q-7.14,6.231-17.664,6.228a25.406,25.406,0,0,1-17.476-6.408,22.669,22.669,0,0,1-.09-33.618,25.534,25.534,0,0,1,17.566-6.322q10.8,0,17.752,6.14Q208.691,120.4,208.7,131.031Zm-15.578.027a8.676,8.676,0,0,0-2.789-6.454,9.361,9.361,0,0,0-13.115-.047,8.7,8.7,0,0,0-2.74,6.5,8.4,8.4,0,0,0,2.787,6.366,9.494,9.494,0,0,0,13.068,0A8.4,8.4,0,0,0,193.118,131.058Z"/><path class="c" d="M258.515,152.8H242.557v-4.672a20.79,20.79,0,0,1-4.67,3.593,17.859,17.859,0,0,1-8.874,2.483q-9.878,0-15.915-6.668T207.063,130.9q0-9.5,5.488-15.9a18.962,18.962,0,0,1,15.181-6.763,22.959,22.959,0,0,1,10.522,2.5,13.763,13.763,0,0,1,4.3,3.041V89.136h15.958Zm-15.446-21.882a8.935,8.935,0,0,0-2.88-6.847,9.978,9.978,0,0,0-7.071-2.68,9.343,9.343,0,0,0-6.893,2.68,9.225,9.225,0,0,0-2.691,6.847,9.4,9.4,0,0,0,2.691,6.9,9.272,9.272,0,0,0,6.893,2.726,9.941,9.941,0,0,0,7.118-2.678A9.125,9.125,0,0,0,243.069,130.917Z"/><path class="c" d="M111.886,208.705q0,9.9-6.234,15.993t-16.137,6.1a46.273,46.273,0,0,1-13.254-1.7,44.233,44.233,0,0,1-11.876-5.919l7.525-14.033q8.628,6.071,14.04,6.071a6.742,6.742,0,0,0,4.4-1.419,4.873,4.873,0,0,0,1.746-3.992,4.352,4.352,0,0,0-1.74-3.572q-.19-.087-6.88-3.207l-7.791-3.574a14.373,14.373,0,0,1-5.5-5.136,19.161,19.161,0,0,1,3.154-24.655,21.109,21.109,0,0,1,14.783-5.773,41.165,41.165,0,0,1,11.442,1.327,36.913,36.913,0,0,1,10.068,5.181l-6.868,12.556a16.419,16.419,0,0,0-5.588-3.3,18.13,18.13,0,0,0-6.323-1.463,4.476,4.476,0,0,0-3.39,1.463,4.933,4.933,0,0,0-1.37,3.486q0,3.3,4.588,5.222l7.8,3.3Q111.887,197.347,111.886,208.705Z"/><path class="c" d="M159.048,229.389H144.233v-4.4a26.1,26.1,0,0,1-5.409,3.081c-3.794,1.814-6.8,2.722-9,2.722a19.268,19.268,0,0,1-15.516-7.139,24.375,24.375,0,0,1-5.693-16.373,22.984,22.984,0,0,1,6.275-16.193,20.192,20.192,0,0,1,23.126-5.117q4.581,1.737,6.323,4.126l-.1.182v-4.813h14.815Zm-14.3-21.875a9.358,9.358,0,0,0-2.84-7.043,9.843,9.843,0,0,0-7.141-2.744,8.92,8.92,0,0,0-6.819,2.786,10.612,10.612,0,0,0,.093,14.041,9.126,9.126,0,0,0,6.911,2.84,9.5,9.5,0,0,0,7.095-2.749A9.714,9.714,0,0,0,144.748,207.514Z"/><path class="c" d="M239.67,229.389H223.075V203.282a4.844,4.844,0,0,0-2.292-4.207,8.717,8.717,0,0,0-5.026-1.562,6.874,6.874,0,0,0-5.574,2.29,8.96,8.96,0,0,0-1.92,5.953v23.633H192.3V204.384q0-6.871-6.657-6.871-8.023,0-8.029,8.243v23.633H161.659V185.467h15.954v5.271q5.4-3.781,6.413-4.335a17.251,17.251,0,0,1,8.418-2.214,16.653,16.653,0,0,1,9.794,2.763,22.027,22.027,0,0,1,4.669,4.975,60.872,60.872,0,0,1,6.225-4.939,19.887,19.887,0,0,1,10.248-2.8q16.292,0,16.29,17.728Z"/><path class="c" d="M248.891,226.163a3.179,3.179,0,1,1-.933-2.282A3.12,3.12,0,0,1,248.891,226.163Zm-.831,0a2.308,2.308,0,0,0-.663-1.711,2.625,2.625,0,0,0-3.457-.007,2.3,2.3,0,0,0-.654,1.718,2.388,2.388,0,1,0,4.774,0Zm-.891,1.682h-.83l-.757-1.418h-.544v1.418h-.71v-3.367h1.643a1.345,1.345,0,0,1,.869.231.978.978,0,0,1,.284.8.8.8,0,0,1-.773.919Zm-.7-2.438a.279.279,0,0,0-.242-.279,3.419,3.419,0,0,0-.423-.015h-.77v.666h.77a1.572,1.572,0,0,0,.468-.047A.308.308,0,0,0,246.473,225.407Z"/></svg>